<svg xmlns="http://www.w3.org/2000/svg" width="390" height="820" viewBox="0 0 390 820">
  <defs>
    <style>
      text { font-family: -apple-system, BlinkMacSystemFont, 'Segoe UI', sans-serif; }
      .mono { font-family: 'SF Mono', 'Fira Code', monospace; }
    </style>
    <linearGradient id="logo-bg" x1="0" y1="0" x2="1" y2="1">
      <stop offset="0%" stop-color="#0F1E35"/>
      <stop offset="100%" stop-color="#0A1628"/>
    </linearGradient>
    <linearGradient id="logo-ring" x1="0" y1="0" x2="1" y2="1">
      <stop offset="0%" stop-color="#00D4FF"/>
      <stop offset="100%" stop-color="#0099CC"/>
    </linearGradient>
  </defs>

  <!-- Screen background -->
  <rect width="390" height="820" fill="hsl(222,47%,11%)"/>

  <!-- ── TOP BAR ── -->
  <rect width="390" height="56" fill="hsl(222,47%,14%)" stroke="hsl(222,47%,18%)" stroke-width="1"/>
  <g transform="translate(16,14)">
    <rect x="0" y="0" width="28" height="28" rx="7" fill="url(#logo-bg)"/>
    <rect x="0" y="0" width="28" height="28" rx="7" fill="none" stroke="rgba(255,255,255,0.06)" stroke-width="0.5"/>
    <circle cx="14" cy="14" r="7.5" fill="none" stroke="url(#logo-ring)" stroke-width="1.5"/>
    <circle cx="14" cy="7.5" r="0.7" fill="#00D4FF" opacity="0.7"/>
    <circle cx="20.5" cy="14" r="0.7" fill="#00D4FF" opacity="0.7"/>
    <circle cx="14" cy="20.5" r="0.7" fill="#00D4FF" opacity="0.7"/>
    <circle cx="7.5" cy="14" r="0.7" fill="#00D4FF" opacity="0.7"/>
    <line x1="14" y1="14" x2="9.8" y2="8.5" stroke="#E8F4FF" stroke-width="1.1" stroke-linecap="round"/>
    <line x1="14" y1="14" x2="17.5" y2="10.8" stroke="#FFAA00" stroke-width="1.3" stroke-linecap="round"/>
    <circle cx="14" cy="14" r="1.3" fill="#FFAA00"/>
    <circle cx="14" cy="14" r="0.65" fill="#FFD966"/>
  </g>
  <text x="52" y="32" font-size="15" font-weight="700" fill="hsl(213,31%,91%)" letter-spacing="-0.3">Time Keeper</text>
  <text x="310" y="32" font-size="13" fill="hsl(213,31%,65%)" class="mono">23:15</text>
  <text x="348" y="32" font-size="13" fill="hsl(213,31%,40%)" class="mono"> / 35</text>

  <!-- ── WEEK NAV ── -->
  <text x="28" y="96" font-size="20" fill="hsl(213,31%,55%)" text-anchor="middle">‹</text>
  <text x="195" y="86" font-size="15" font-weight="600" fill="hsl(213,31%,91%)" text-anchor="middle">2026-W08</text>
  <text x="195" y="103" font-size="13" fill="hsl(213,31%,50%)" text-anchor="middle">23.5h / 35h</text>
  <text x="362" y="96" font-size="20" fill="hsl(213,31%,55%)" text-anchor="middle">›</text>

  <!-- ── WEEKLY TABLE CARD ── -->
  <!-- 5 data rows × 32px + header 36px + totals 36px + card padding = ~260px card height -->
  <rect x="16" y="116" width="358" height="404" rx="12" fill="hsl(222,47%,14%)" stroke="hsl(222,47%,20%)" stroke-width="1"/>

  <!-- Table header row background -->
  <rect x="16" y="116" width="358" height="36" rx="12" fill="hsl(222,47%,16%)"/>
  <rect x="16" y="136" width="358" height="16" fill="hsl(222,47%,16%)"/>

  <!-- Column layout: Category col x=28–88 (60px), then 7 day cols + Total
       spread evenly across x=88–374 (286px → 35px/col, 7 days + ~51px Total)
       Day centers: Mon=105 Tue=140 Wed=175 Thu=210 Fri=245 Sat=280 Sun=315 Total=370(end) -->
  <text x="28" y="139" font-size="10" fill="hsl(213,31%,45%)" font-weight="500">Category</text>
  <text x="105" y="139" font-size="10" fill="hsl(213,31%,45%)" font-weight="500" text-anchor="middle">Mon</text>
  <text x="140" y="139" font-size="10" fill="hsl(213,31%,45%)" font-weight="500" text-anchor="middle">Tue</text>
  <text x="175" y="139" font-size="10" fill="hsl(213,31%,45%)" font-weight="500" text-anchor="middle">Wed</text>
  <text x="210" y="139" font-size="10" fill="hsl(213,31%,45%)" font-weight="500" text-anchor="middle">Thu</text>
  <text x="245" y="139" font-size="10" fill="hsl(213,31%,45%)" font-weight="500" text-anchor="middle">Fri</text>
  <text x="280" y="139" font-size="10" fill="hsl(213,31%,45%)" font-weight="500" text-anchor="middle">Sat</text>
  <text x="315" y="139" font-size="10" fill="hsl(213,31%,45%)" font-weight="500" text-anchor="middle">Sun</text>
  <text x="370" y="139" font-size="10" fill="hsl(213,31%,45%)" font-weight="500" text-anchor="end">Total</text>
  <line x1="16" y1="152" x2="374" y2="152" stroke="hsl(222,47%,20%)" stroke-width="1"/>

  <!-- Row 1: Development -->
  <circle cx="32" cy="170" r="4" fill="#6366f1"/>
  <text x="42" y="174" font-size="11" font-weight="500" fill="hsl(213,31%,85%)">Development</text>
  <text x="105" y="174" font-size="11" fill="hsl(213,31%,70%)" class="mono" text-anchor="middle">3.0h</text>
  <text x="140" y="174" font-size="11" fill="hsl(213,31%,70%)" class="mono" text-anchor="middle">4.0h</text>
  <text x="175" y="174" font-size="11" fill="hsl(213,31%,70%)" class="mono" text-anchor="middle">2.0h</text>
  <text x="210" y="174" font-size="11" fill="hsl(213,31%,40%)" class="mono" text-anchor="middle">–</text>
  <text x="245" y="174" font-size="11" fill="hsl(213,31%,70%)" class="mono" text-anchor="middle">3.0h</text>
  <text x="280" y="174" font-size="11" fill="hsl(213,31%,40%)" class="mono" text-anchor="middle">–</text>
  <text x="315" y="174" font-size="11" fill="hsl(213,31%,40%)" class="mono" text-anchor="middle">–</text>
  <text x="370" y="174" font-size="11" font-weight="600" fill="hsl(213,31%,91%)" class="mono" text-anchor="end">12.0h</text>
  <line x1="16" y1="184" x2="374" y2="184" stroke="hsl(222,47%,18%)" stroke-width="1"/>

  <!-- Row 2: Meetings -->
  <circle cx="32" cy="202" r="4" fill="#ec4899"/>
  <text x="42" y="206" font-size="11" font-weight="500" fill="hsl(213,31%,85%)">Meetings</text>
  <text x="105" y="206" font-size="11" fill="hsl(213,31%,70%)" class="mono" text-anchor="middle">1.0h</text>
  <text x="140" y="206" font-size="11" fill="hsl(213,31%,40%)" class="mono" text-anchor="middle">–</text>
  <text x="175" y="206" font-size="11" fill="hsl(213,31%,70%)" class="mono" text-anchor="middle">2.0h</text>
  <text x="210" y="206" font-size="11" fill="hsl(213,31%,70%)" class="mono" text-anchor="middle">1.0h</text>
  <text x="245" y="206" font-size="11" fill="hsl(213,31%,40%)" class="mono" text-anchor="middle">–</text>
  <text x="280" y="206" font-size="11" fill="hsl(213,31%,40%)" class="mono" text-anchor="middle">–</text>
  <text x="315" y="206" font-size="11" fill="hsl(213,31%,40%)" class="mono" text-anchor="middle">–</text>
  <text x="370" y="206" font-size="11" font-weight="600" fill="hsl(213,31%,91%)" class="mono" text-anchor="end">4.0h</text>
  <line x1="16" y1="216" x2="374" y2="216" stroke="hsl(222,47%,18%)" stroke-width="1"/>

  <!-- Row 3: Documentation -->
  <circle cx="32" cy="234" r="4" fill="#14b8a6"/>
  <text x="42" y="238" font-size="11" font-weight="500" fill="hsl(213,31%,85%)">Docs</text>
  <text x="105" y="238" font-size="11" fill="hsl(213,31%,40%)" class="mono" text-anchor="middle">–</text>
  <text x="140" y="238" font-size="11" fill="hsl(213,31%,70%)" class="mono" text-anchor="middle">2.0h</text>
  <text x="175" y="238" font-size="11" fill="hsl(213,31%,40%)" class="mono" text-anchor="middle">–</text>
  <text x="210" y="238" font-size="11" fill="hsl(213,31%,70%)" class="mono" text-anchor="middle">1.0h</text>
  <text x="245" y="238" font-size="11" fill="hsl(213,31%,70%)" class="mono" text-anchor="middle">2.0h</text>
  <text x="280" y="238" font-size="11" fill="hsl(213,31%,40%)" class="mono" text-anchor="middle">–</text>
  <text x="315" y="238" font-size="11" fill="hsl(213,31%,40%)" class="mono" text-anchor="middle">–</text>
  <text x="370" y="238" font-size="11" font-weight="600" fill="hsl(213,31%,91%)" class="mono" text-anchor="end">5.0h</text>
  <line x1="16" y1="248" x2="374" y2="248" stroke="hsl(222,47%,18%)" stroke-width="1"/>

  <!-- Row 4: Review -->
  <circle cx="32" cy="266" r="4" fill="#f97316"/>
  <text x="42" y="270" font-size="11" font-weight="500" fill="hsl(213,31%,85%)">Review</text>
  <text x="105" y="270" font-size="11" fill="hsl(213,31%,70%)" class="mono" text-anchor="middle">1.0h</text>
  <text x="140" y="270" font-size="11" fill="hsl(213,31%,40%)" class="mono" text-anchor="middle">–</text>
  <text x="175" y="270" font-size="11" fill="hsl(213,31%,70%)" class="mono" text-anchor="middle">1.0h</text>
  <text x="210" y="270" font-size="11" fill="hsl(213,31%,70%)" class="mono" text-anchor="middle">1.0h</text>
  <text x="245" y="270" font-size="11" fill="hsl(213,31%,40%)" class="mono" text-anchor="middle">–</text>
  <text x="280" y="270" font-size="11" fill="hsl(213,31%,40%)" class="mono" text-anchor="middle">–</text>
  <text x="315" y="270" font-size="11" fill="hsl(213,31%,40%)" class="mono" text-anchor="middle">–</text>
  <text x="370" y="270" font-size="11" font-weight="600" fill="hsl(213,31%,91%)" class="mono" text-anchor="end">3.0h</text>
  <line x1="16" y1="280" x2="374" y2="280" stroke="hsl(222,47%,18%)" stroke-width="1"/>

  <!-- Row 5: Planning -->
  <circle cx="32" cy="298" r="4" fill="#8b5cf6"/>
  <text x="42" y="302" font-size="11" font-weight="500" fill="hsl(213,31%,85%)">Planning</text>
  <text x="105" y="302" font-size="11" fill="hsl(213,31%,40%)" class="mono" text-anchor="middle">–</text>
  <text x="140" y="302" font-size="11" fill="hsl(213,31%,40%)" class="mono" text-anchor="middle">–</text>
  <text x="175" y="302" font-size="11" fill="hsl(213,31%,70%)" class="mono" text-anchor="middle">1.0h</text>
  <text x="210" y="302" font-size="11" fill="hsl(213,31%,70%)" class="mono" text-anchor="middle">1.0h</text>
  <text x="245" y="302" font-size="11" fill="hsl(213,31%,40%)" class="mono" text-anchor="middle">–</text>
  <text x="280" y="302" font-size="11" fill="hsl(213,31%,40%)" class="mono" text-anchor="middle">–</text>
  <text x="315" y="302" font-size="11" fill="hsl(213,31%,40%)" class="mono" text-anchor="middle">–</text>
  <text x="370" y="302" font-size="11" font-weight="600" fill="hsl(213,31%,91%)" class="mono" text-anchor="end">2.0h</text>
  <line x1="16" y1="312" x2="374" y2="312" stroke="hsl(222,47%,20%)" stroke-width="1.5"/>

  <!-- Totals row -->
  <rect x="17" y="313" width="356" height="36" fill="hsl(222,47%,16%)"/>
  <rect x="17" y="337" width="356" height="16" fill="hsl(222,47%,16%)"/>
  <text x="28" y="335" font-size="11" font-weight="600" fill="hsl(213,31%,85%)">Total</text>
  <text x="105" y="335" font-size="11" font-weight="600" fill="hsl(213,31%,70%)" class="mono" text-anchor="middle">5.0h</text>
  <text x="140" y="335" font-size="11" font-weight="600" fill="hsl(213,31%,70%)" class="mono" text-anchor="middle">6.0h</text>
  <text x="175" y="335" font-size="11" font-weight="600" fill="hsl(213,31%,70%)" class="mono" text-anchor="middle">6.0h</text>
  <text x="210" y="335" font-size="11" font-weight="600" fill="hsl(213,31%,70%)" class="mono" text-anchor="middle">4.0h</text>
  <!-- Friday: at/over daily goal → green -->
  <text x="245" y="335" font-size="11" font-weight="600" fill="#4ade80" class="mono" text-anchor="middle">5.0h</text>
  <text x="280" y="335" font-size="11" font-weight="600" fill="hsl(213,31%,40%)" class="mono" text-anchor="middle">–</text>
  <text x="315" y="335" font-size="11" font-weight="600" fill="hsl(213,31%,40%)" class="mono" text-anchor="middle">–</text>
  <text x="370" y="335" font-size="11" font-weight="600" fill="hsl(213,31%,85%)" class="mono" text-anchor="end">26.0h</text>

  <!-- bottom card filler to round bottom corners -->
  <rect x="16" y="349" width="358" height="171" fill="hsl(222,47%,14%)" rx="0"/>
  <rect x="16" y="492" width="358" height="28" rx="12" fill="hsl(222,47%,14%)"/>

  <!-- ── ACTION BUTTONS ── -->
  <!-- Copy for Workday -->
  <rect x="16" y="532" width="256" height="40" rx="8" fill="hsl(222,47%,18%)" stroke="hsl(222,47%,26%)" stroke-width="1"/>
  <text x="144" y="557" font-size="13" font-weight="500" fill="hsl(213,31%,85%)" text-anchor="middle">⎘  Copy for Workday</text>
  <!-- Round today -->
  <rect x="280" y="532" width="94" height="40" rx="8" fill="hsl(222,47%,22%)"/>
  <text x="327" y="557" font-size="13" font-weight="500" fill="hsl(213,31%,80%)" text-anchor="middle">Round today</text>

  <!-- ── BOTTOM NAV ── -->
  <rect y="762" width="390" height="58" fill="hsl(222,47%,14%)" stroke="hsl(222,47%,18%)" stroke-width="1"/>
  <!-- Track — Timer icon (inactive) -->
  <g transform="translate(55,770)" fill="none" stroke="hsl(213,31%,45%)" stroke-width="1.6" stroke-linecap="round" stroke-linejoin="round">
    <circle cx="10" cy="10" r="8"/>
    <polyline points="10,5 10,10 13,13"/>
  </g>
  <text x="65" y="804" font-size="11" fill="hsl(213,31%,45%)" text-anchor="middle">Track</text>
  <!-- Weekly — BarChart2 icon (active) -->
  <g transform="translate(185,770)" fill="none" stroke="hsl(239,84%,67%)" stroke-width="1.6" stroke-linecap="round" stroke-linejoin="round">
    <line x1="18" y1="20" x2="18" y2="10"/>
    <line x1="12" y1="20" x2="12" y2="4"/>
    <line x1="6" y1="20" x2="6" y2="14"/>
    <line x1="3" y1="20" x2="21" y2="20"/>
  </g>
  <text x="195" y="804" font-size="11" font-weight="600" fill="hsl(239,84%,67%)" text-anchor="middle">Weekly</text>
  <!-- Settings — gear icon (inactive) -->
  <g transform="translate(315,770)" fill="none" stroke="hsl(213,31%,45%)" stroke-width="1.6" stroke-linecap="round" stroke-linejoin="round">
    <circle cx="10" cy="10" r="3"/>
    <path d="M10 1.5v3M10 15.5v3M1.5 10h3M15.5 10h3M4.1 4.1l2.1 2.1M13.8 13.8l2.1 2.1M4.1 15.9l2.1-2.1M13.8 6.2l2.1-2.1"/>
  </g>
  <text x="325" y="804" font-size="11" fill="hsl(213,31%,45%)" text-anchor="middle">Settings</text>
</svg>
